<?xml version="1.0" encoding="UTF-8" standalone="no"?>
<!-- Created with Inkscape (http://www.inkscape.org/) -->

<svg
   xmlns:dc="http://purl.org/dc/elements/1.1/"
   xmlns:cc="http://creativecommons.org/ns#"
   xmlns:rdf="http://www.w3.org/1999/02/22-rdf-syntax-ns#"
   xmlns:svg="http://www.w3.org/2000/svg"
   xmlns="http://www.w3.org/2000/svg"
   xmlns:sodipodi="http://sodipodi.sourceforge.net/DTD/sodipodi-0.dtd"
   xmlns:inkscape="http://www.inkscape.org/namespaces/inkscape"
   width="400mm"
   height="210mm"
   viewBox="0 0 400 210"
   version="1.1"
   id="svg8"
   inkscape:version="0.92.1 r15371"
   sodipodi:docname="solarNet2.svg">
  <defs
     id="defs2" />
  <sodipodi:namedview
     id="base"
     pagecolor="#ffffff"
     bordercolor="#666666"
     borderopacity="1.0"
     inkscape:pageopacity="1"
     inkscape:pageshadow="2"
     inkscape:zoom="0.35"
     inkscape:cx="437.717"
     inkscape:cy="520.56108"
     inkscape:document-units="mm"
     inkscape:current-layer="layer1"
     showgrid="false"
     inkscape:window-width="1360"
     inkscape:window-height="705"
     inkscape:window-x="-8"
     inkscape:window-y="-8"
     inkscape:window-maximized="1" />
  <metadata
     id="metadata5">
    <rdf:RDF>
      <cc:Work
         rdf:about="">
        <dc:format>image/svg+xml</dc:format>
        <dc:type
           rdf:resource="http://purl.org/dc/dcmitype/StillImage" />
        <dc:title></dc:title>
      </cc:Work>
    </rdf:RDF>
  </metadata>
  <g
     inkscape:label="Layer 1"
     inkscape:groupmode="layer"
     id="layer1"
     transform="translate(0,-87)">
    <circle
       style="fill:none;fill-opacity:0.61960784;stroke:#000000;stroke-width:4.69999981;stroke-miterlimit:4;stroke-dasharray:none;stroke-opacity:1"
       id="path4485"
       cx="81.64286"
       cy="188.52083"
       r="29.716116" />
    <path
       id="path4510"
       style="fill:#ffffff;fill-opacity:0.05527637;stroke:#ffffff;stroke-width:11.68200016;stroke-miterlimit:4;stroke-dasharray:none;stroke-opacity:1"
       d="m 107.70415,167.2755 a 4.1907795,4.1907795 0 0 0 -4.19096,4.19044 4.1907795,4.1907795 0 0 0 0.90279,2.59725 c 0.11838,-0.28786 0.28221,-0.58839 0.50281,-0.89865 0.0579,-0.0813 0.10938,-0.14383 0.16485,-0.21807 -0.15655,-0.11694 -0.28257,-0.21662 -0.46147,-0.34572 -0.10399,-0.075 0.0678,-0.18897 0.20929,-0.29352 0.11031,-0.19755 0.35445,-0.47276 0.72657,-0.94775 0.3016,-0.338 0.57816,-0.70009 0.90485,-1.01389 0.26845,-0.25785 1.45705,-1.24986 1.92908,-1.4795 0.20463,-0.0995 0.42169,-0.17085 0.64027,-0.23667 -0.21067,0.008 -0.0352,-0.0757 0.54726,-0.72812 0.0411,-0.046 0.0755,-0.0803 0.1142,-0.12248 a 4.1907795,4.1907795 0 0 0 -1.98954,-0.50332 z m 4.18114,3.92223 c -0.27534,0.33471 -0.52025,0.65471 -0.91933,1.01131 -0.18511,0.16541 -0.41774,0.27305 -0.59686,0.44494 -0.12757,0.12241 -0.19222,0.29943 -0.31316,0.4284 -0.28382,0.30268 -0.59849,0.57492 -0.89762,0.86248 -0.63054,0.82437 0.0926,-0.0665 -0.8878,0.9064 -0.038,0.0377 0.16332,-0.122 0.14315,-0.0724 -0.0888,0.21879 -0.27725,0.38208 -0.41393,0.57465 -0.0762,0.10738 -0.1538,0.20668 -0.23203,0.30127 a 4.1907795,4.1907795 0 0 0 4.1274,-4.18889 4.1907795,4.1907795 0 0 0 -0.01,-0.26821 z"
       inkscape:connector-curvature="0" />
    <circle
       style="fill:none;fill-opacity:0.93969852;stroke:#000000;stroke-width:3.74121881;stroke-miterlimit:4;stroke-dasharray:none;stroke-opacity:1"
       id="path4523"
       cx="106.09109"
       cy="172.47978"
       r="6.2412577" />
    <circle
       style="fill:#ffffff;fill-opacity:1;stroke:#ffffff;stroke-width:1.69999993;stroke-miterlimit:4;stroke-dasharray:none;stroke-opacity:1"
       id="path4525"
       cx="89.116745"
       cy="217.77223"
       r="18.842501" />
    <circle
       style="fill:none;fill-opacity:1;stroke:#000000;stroke-width:4.1862607;stroke-miterlimit:4;stroke-dasharray:none;stroke-opacity:1"
       id="path4525-2"
       cx="87.969391"
       cy="214.99438"
       r="14.846768" />
    <circle
       style="fill:#ffffff;fill-opacity:1;stroke:#ffffff;stroke-width:1.45773709;stroke-miterlimit:4;stroke-dasharray:none;stroke-opacity:1"
       id="path4525-0"
       cx="60.786179"
       cy="168.32736"
       r="16.157303" />
    <circle
       style="fill:none;fill-opacity:1;stroke:#000000;stroke-width:4.21436787;stroke-miterlimit:4;stroke-dasharray:none;stroke-opacity:1"
       id="path4525-0-7"
       cx="61.06295"
       cy="168.0696"
       r="12.653359" />
    <text
       xml:space="preserve"
       style="font-style:normal;font-variant:normal;font-weight:normal;font-stretch:normal;font-size:10.58333302px;line-height:1.25;font-family:Montserrat;-inkscape-font-specification:Montserrat;letter-spacing:0px;word-spacing:0px;fill:#000000;fill-opacity:1;stroke:none;stroke-width:0.26458332"
       x="7.9375005"
       y="205.90776"
       id="text4589"><tspan
         sodipodi:role="line"
         id="tspan4587"
         x="7.9375005"
         y="205.90776"
         style="font-style:normal;font-variant:normal;font-weight:normal;font-stretch:normal;font-size:50.79999924px;font-family:Montserrat;-inkscape-font-specification:Montserrat;stroke-width:0.26458332">S</tspan></text>
    <text
       xml:space="preserve"
       style="font-style:normal;font-weight:normal;font-size:10.58333302px;line-height:1.25;font-family:sans-serif;letter-spacing:0px;word-spacing:0px;fill:#000000;fill-opacity:1;stroke:none;stroke-width:0.26458332"
       x="119.80733"
       y="207.79764"
       id="text4593"><tspan
         sodipodi:role="line"
         id="tspan4591"
         x="119.80733"
         y="207.79764"
         style="font-style:normal;font-variant:normal;font-weight:normal;font-stretch:normal;font-size:50.79999924px;font-family:Montserrat;-inkscape-font-specification:Montserrat;stroke-width:0.26458332">L A R N E T</tspan></text>
  </g>
</svg>
