<?xml version="1.0" encoding="UTF-8" standalone="no"?>
<!-- Created with Inkscape (http://www.inkscape.org/) -->

<svg
   xmlns:dc="http://purl.org/dc/elements/1.1/"
   xmlns:cc="http://creativecommons.org/ns#"
   xmlns:rdf="http://www.w3.org/1999/02/22-rdf-syntax-ns#"
   xmlns:svg="http://www.w3.org/2000/svg"
   xmlns="http://www.w3.org/2000/svg"
   xmlns:xlink="http://www.w3.org/1999/xlink"
   xmlns:sodipodi="http://sodipodi.sourceforge.net/DTD/sodipodi-0.dtd"
   xmlns:inkscape="http://www.inkscape.org/namespaces/inkscape"
   width="210mm"
   height="297mm"
   viewBox="0 0 210 297"
   version="1.1"
   id="svg8"
   inkscape:version="0.92.1 r15371"
   sodipodi:docname="saturn.svg">
  <defs
     id="defs2">
    <linearGradient
       inkscape:collect="always"
       id="linearGradient5704">
      <stop
         style="stop-color:#deaa87;stop-opacity:1;"
         offset="0"
         id="stop5700" />
      <stop
         id="stop5726"
         offset="0.07285226"
         style="stop-color:#e9c6af;stop-opacity:1" />
      <stop
         id="stop5724"
         offset="0.23642614"
         style="stop-color:#e9c6af;stop-opacity:1" />
      <stop
         id="stop5722"
         offset="0.31546393"
         style="stop-color:#a05a2c;stop-opacity:1" />
      <stop
         id="stop5720"
         offset="0.38487974"
         style="stop-color:#e9c6af;stop-opacity:1" />
      <stop
         id="stop5718"
         offset="0.46048114"
         style="stop-color:#d38d5f;stop-opacity:1" />
      <stop
         id="stop5716"
         offset="0.53333336"
         style="stop-color:#d38d5f;stop-opacity:1" />
      <stop
         id="stop5714"
         offset="0.57594502"
         style="stop-color:#784421;stop-opacity:1" />
      <stop
         id="stop5712"
         offset="0.63642615"
         style="stop-color:#a05a2c;stop-opacity:1" />
      <stop
         id="stop5710"
         offset="0.75189006"
         style="stop-color:#deaa87;stop-opacity:1" />
      <stop
         id="stop5708"
         offset="0.88453609"
         style="stop-color:#c87137;stop-opacity:1" />
      <stop
         style="stop-color:#deaa87;stop-opacity:0;"
         offset="1"
         id="stop5702" />
    </linearGradient>
    <linearGradient
       inkscape:collect="always"
       xlink:href="#linearGradient5704"
       id="linearGradient5706"
       x1="47.118084"
       y1="122.16904"
       x2="49.241814"
       y2="199.16719"
       gradientUnits="userSpaceOnUse" />
  </defs>
  <sodipodi:namedview
     id="base"
     pagecolor="#ffffff"
     bordercolor="#666666"
     borderopacity="1.0"
     inkscape:pageopacity="0.0"
     inkscape:pageshadow="2"
     inkscape:zoom="0.49497475"
     inkscape:cx="70.765696"
     inkscape:cy="663.26733"
     inkscape:document-units="mm"
     inkscape:current-layer="layer1"
     showgrid="false"
     inkscape:window-width="1360"
     inkscape:window-height="705"
     inkscape:window-x="-8"
     inkscape:window-y="-8"
     inkscape:window-maximized="1" />
  <metadata
     id="metadata5">
    <rdf:RDF>
      <cc:Work
         rdf:about="">
        <dc:format>image/svg+xml</dc:format>
        <dc:type
           rdf:resource="http://purl.org/dc/dcmitype/StillImage" />
        <dc:title></dc:title>
      </cc:Work>
    </rdf:RDF>
  </metadata>
  <g
     inkscape:label="Layer 1"
     inkscape:groupmode="layer"
     id="layer1">
    <circle
       style="fill:url(#linearGradient5706);fill-opacity:1;stroke:#756f63;stroke-width:0.2;stroke-miterlimit:4;stroke-dasharray:none;stroke-opacity:1"
       id="path5617"
       cx="48.083588"
       cy="160.41275"
       r="39.288624"
       transform="rotate(-20)" />
  </g>
  <g
     inkscape:groupmode="layer"
     id="layer10"
     inkscape:label="TopTop" />
  <g
     inkscape:groupmode="layer"
     id="layer9"
     inkscape:label="Top">
    <path
       style="fill:#e9c6af;fill-opacity:1;stroke:#756f63;stroke-width:0.13388622;stroke-miterlimit:4;stroke-dasharray:none;stroke-opacity:1"
       d="m 62.339373,123.26337 a 23.828592,95.771194 70 0 0 -55.2411267,44.29201 23.828592,95.771194 70 0 0 98.1455237,-10.36427 23.828592,95.771194 70 0 0 81.84537,-55.14706 23.828592,95.771194 70 0 0 -64.67748,-0.0568 c 0.41575,0.28727 0.82495,0.58409 1.22989,0.88759 a 22.665124,89.301552 70 0 1 58.01181,1.05252 22.665124,89.301552 70 0 1 -76.16449,51.84149 22.665124,89.301552 70 0 1 -91.667481,9.24435 22.665124,89.301552 70 0 1 48.085871,-40.16001 c 0.132542,-0.53344 0.277595,-1.06313 0.432113,-1.58984 z m -1.021883,4.39797 a 20.883271,81.422588 70 0 0 -39.970034,34.99261 20.883271,81.422588 70 0 0 83.654134,-8.22387 20.883271,81.422588 70 0 0 69.36996,-47.47234 20.883271,81.422588 70 0 0 -48.42163,-2.21301 c 1.45979,1.2773 2.83146,2.66737 4.09902,4.1652 a 16.962715,66.382627 70.002757 0 1 30.29559,3.48263 16.962715,66.382627 70.002757 0 1 -56.3753,38.62095 16.962715,66.382627 70.002757 0 1 -68.350492,6.87672 16.962715,66.382627 70.002757 0 1 25.143978,-24.63217 c 0.05023,-1.88629 0.237864,-3.75623 0.554774,-5.59672 z m -0.547979,7.82586 a 15.180493,60.295652 70.00271 0 0 -19.769005,20.43927 15.180493,60.295652 70.00271 0 0 62.005134,-6.45895 15.180493,60.295652 70.00271 0 0 51.2836,-34.86606 15.180493,60.295652 70.00271 0 0 -22.6681,-3.7033 c 0.34845,0.47065 0.68722,0.95027 1.01592,1.43895 a 13.754529,56.357924 70.002617 0 1 17.55534,3.57015 13.754529,56.357924 70.002617 0 1 -48.08324,32.17903 13.754529,56.357924 70.002617 0 1 -57.808445,6.44433 13.754529,56.357924 70.002617 0 1 16.540974,-17.56838 c -0.03374,-0.49224 -0.05717,-0.98401 -0.07218,-1.47504 z"
       id="path5559"
       inkscape:connector-curvature="0" />
  </g>
</svg>
